<?xml version="1.0" encoding="utf-8" ?>
<svg baseProfile="tiny" height="480" version="1.2" width="640" xmlns="http://www.w3.org/2000/svg"
>
    <defs/>
    <line stroke="rgb(0%,100%,0%)" x1="320.0" x2="320.0" y1="0" y2="480"/>
    <line stroke="rgb(0%,100%,0%)" x1="0" x2="640" y1="240.0" y2="240.0"/>
    <polygon fill="none"
             points="420.0,240.0 419.5185,249.8017 418.1361,259.2172 416.0185,267.9367 413.1277,276.4312 409.5981,284.4092 405.5092,291.8477 400.8041,298.9126 395.6632,305.3841 390.0054,311.409 383.8694,316.9461 377.2971,321.9576 370.3334,326.4092 362.824,330.3665 355.0061,333.6727 346.7088,336.3672 337.963,338.3734 328.8096,339.6112 319.3011,339.9976 309.503,339.4475 300.0974,337.9994 291.3929,335.8209 283.1505,332.963 275.1884,329.3976 267.7684,325.2752 260.7247,320.5385 254.2764,315.3685 248.277,309.6836 242.7675,303.5228 237.7856,296.928 233.3654,289.9444 229.4419,282.4173 226.1709,274.5846 223.5137,266.2753 221.5468,257.5206 220.3502,248.3617 220.0066,238.8515 220.6007,229.056 222.0345,219.9313 224.2278,211.2305 227.0997,202.9929 230.6786,195.0369 234.8135,187.6239 239.5622,180.5882 244.7431,174.1487 250.4381,168.1589 256.6083,162.6599 263.2115,157.6892 270.2026,153.2808 277.7363,149.3701 285.5745,146.1124 293.8884,143.4693 302.6464,141.5172 311.8073,140.3362 321.318,140.0087 331.1126,140.6194 340.2348,142.0686 348.9319,144.2767 357.1646,147.1626 365.1145,150.7549 372.5205,154.9024 379.5481,159.663 385.9789,164.8549 391.9589,170.56 397.4475,176.7395 402.407,183.3512 406.8035,190.3497 410.7015,197.8901 413.9459,205.7338 416.5749,214.0521 418.512,222.8135 419.6776,231.9763 420.0,240.0"
             stroke="rgb(100%,0%,0%)"/>
    <circle cx="350.0" cy="144.6477" fill="none" r="2" stroke="rgb(0%,100%,0%)" stroke-width="1"/>
    <line stroke="rgb(100%,0%,0%)" x1="350.0" x2="350.0" y1="144.6477" y2="124.6477"/>
    <line stroke="rgb(100%,0%,0%)" x1="350.0" x2="290.0" y1="124.6477" y2="124.6477"/>
    <line stroke="rgb(100%,0%,0%)" x1="290.0" x2="290.0" y1="124.6477" y2="144.6477"/>
    <circle cx="290.0" cy="144.6477" fill="none" r="2" stroke="rgb(0%,100%,0%)" stroke-width="1"/>
    <polyline fill="none"
              points="420.0,40.0 419.5185,59.6034 418.2392,77.366 416.3009,93.894 413.8203,109.2172 410.8957,123.3779 407.5261,136.73 403.7622,149.25 399.6519,160.9227 395.2403,171.7406 390.5698,181.7026 385.5702,191.004 380.3808,199.426 374.9217,207.1359 369.2173,214.0994 363.4186,220.1646 357.434,225.4583 351.1568,230.0448 344.7404,233.7825 338.2135,236.6547 331.6053,238.6486 324.8001,239.7695 317.8208,239.9525 310.8522,239.1614 304.0779,237.4486 297.3778,234.8152 290.9222,231.3581 284.5965,227.0464 278.4289,221.8993 272.5695,216.0721 266.9132,209.4909 261.3714,202.0208 256.0914,193.8271 251.0969,184.9463 246.3118,175.2042 241.8702,164.8317 237.7066,153.6275 233.8633,141.5965 230.4588,129.0478 227.4477,115.738 224.8204,101.3462 222.7072,86.2217 221.131,69.995 220.2001,52.6469 220.0,40.0"
              stroke="rgb(100%,0%,0%)"/>
    <polyline fill="none"
              points="520.0,140.0 519.5128,146.9756 518.0956,153.767 515.7548,160.4942 512.58,166.9859 508.545,173.3571 503.6679,179.5793 498.0975,185.5008 491.7644,191.2274 484.5376,196.8493 476.5759,202.2173 467.9149,207.3075 458.5933,212.097 448.4301,216.6579 437.668,220.8613 426.1002,224.7684 413.7353,228.337 400.5888,231.5225 386.6845,234.2777 371.6851,236.6031 355.9708,238.3693 339.1566,239.5402 321.2341,239.9981 301.6251,239.5771 283.847,238.3526 267.2955,236.4653 251.9419,234.032 237.7455,231.1512 224.352,227.8229 211.7858,224.0977 200.0626,220.0235 189.1905,215.6453 179.171,211.0056 169.8081,206.0348 161.3222,200.8715 153.545,195.4363 146.5113,189.7535 140.3746,183.9736 135.0072,178.0055 130.3433,171.7425 126.5265,165.3378 123.5738,158.8199 121.4984,152.218 120.2936,145.4164 120.0,140.0"
              stroke="rgb(100%,0%,0%)"/>
    <polyline fill="none"
              points="220.0,440.0 220.4815,420.3966 221.7608,402.634 223.6991,386.106 226.1797,370.7828 229.1043,356.6221 232.4739,343.27 236.2378,330.75 240.3481,319.0773 244.7597,308.2594 249.4302,298.2974 254.4298,288.996 259.6192,280.574 265.0783,272.8641 270.7827,265.9006 276.5814,259.8354 282.566,254.5417 288.8432,249.9552 295.2596,246.2175 301.7865,243.3453 308.3947,241.3514 315.1999,240.2305 322.1792,240.0475 329.1478,240.8386 335.9221,242.5514 342.6222,245.1848 349.0778,248.6419 355.4035,252.9536 361.5711,258.1007 367.4305,263.9279 373.0868,270.5091 378.6286,277.9792 383.9086,286.1729 388.9031,295.0537 393.6882,304.7958 398.1298,315.1683 402.2934,326.3725 406.1367,338.4035 409.5412,350.9522 412.5523,364.262 415.1796,378.6538 417.2928,393.7783 418.869,410.005 419.7999,427.3531 420.0,440.0"
              stroke="rgb(100%,0%,0%)"/>
    <polyline fill="none"
              points="120.0,340.0 120.4872,333.0244 121.9044,326.233 124.2452,319.5058 127.42,313.0141 131.455,306.6429 136.3321,300.4207 141.9025,294.4992 148.2356,288.7726 155.4624,283.1507 163.4241,277.7827 172.0851,272.6925 181.4067,267.903 191.5699,263.3421 202.332,259.1387 213.8998,255.2316 226.2647,251.663 239.4112,248.4775 253.3155,245.7223 268.3149,243.3969 284.0292,241.6307 300.8434,240.4598 318.7659,240.0019 338.3749,240.4229 356.153,241.6474 372.7045,243.5347 388.0581,245.968 402.2545,248.8488 415.648,252.1771 428.2142,255.9023 439.9374,259.9765 450.8095,264.3547 460.829,268.9944 470.1919,273.9652 478.6778,279.1285 486.455,284.5637 493.4887,290.2465 499.6254,296.0264 504.9928,301.9945 509.6567,308.2575 513.4735,314.6622 516.4262,321.1801 518.5016,327.782 519.7064,334.5836 520.0,340.0"
              stroke="rgb(100%,0%,0%)"/>
    <circle cx="394.4461" cy="306.6406" fill="none" r="2" stroke="rgb(0%,100%,0%)" stroke-width="1"/>
    <circle cx="245.5539" cy="306.6406" fill="none" r="2" stroke="rgb(0%,100%,0%)" stroke-width="1"/>
    <circle cx="394.4461" cy="173.3594" fill="none" r="2" stroke="rgb(0%,100%,0%)" stroke-width="1"/>
    <circle cx="245.5539" cy="173.3594" fill="none" r="2" stroke="rgb(0%,100%,0%)" stroke-width="1"/>
    <circle cx="419.0208" cy="253.1456" fill="none" r="2" stroke="rgb(0%,100%,0%)" stroke-width="1"/>
    <circle cx="220.9792" cy="253.1456" fill="none" r="2" stroke="rgb(0%,100%,0%)" stroke-width="1"/>
    <circle cx="419.0208" cy="226.8544" fill="none" r="2" stroke="rgb(0%,100%,0%)" stroke-width="1"/>
    <circle cx="220.9792" cy="226.8544" fill="none" r="2" stroke="rgb(0%,100%,0%)" stroke-width="1"/>
</svg>